<svg width="73" height="70" viewBox="0 0 73 70" fill="none" xmlns="http://www.w3.org/2000/svg">
<path d="M71.3312 10.8122C70.9556 10.9012 70.7189 11.0246 69.018 12.0254C61.6863 16.3609 57.1051 19.2702 52.9436 22.2382C46.3917 26.9158 41.2078 31.6039 37.1755 36.5095C35.7647 38.2213 34.8592 39.447 33.3833 41.6423C31.8525 43.923 31.2535 44.9126 29.1864 48.5938L28.9092 49.09L28.8121 48.903C27.5509 46.5214 25.7013 44.1314 23.4488 41.9855C22.1684 40.7655 21.2709 40.0127 19.5266 38.7011C17.5572 37.22 15.8938 36.1026 12.4159 33.9312C11.3033 33.2356 9.73983 32.2608 8.94768 31.7616C7.31344 30.7343 7.08145 30.6035 6.64951 30.4726C6.08519 30.2984 5.66534 30.3545 5.40368 30.6485C5.08728 30.9978 5.08846 31.958 5.40417 32.7784C5.76332 33.7215 6.19553 34.2774 7.10818 34.9729C12.3147 38.943 17.2497 44.4003 21.506 50.9032C24.0234 54.7555 26.041 58.4649 27.8763 62.6423C28.2414 63.4664 28.5459 64.0949 28.5615 64.0627C28.5829 64.0264 28.7606 63.6127 28.9592 63.1377C32.8704 53.7162 39.2905 44.3858 48.4333 34.8391C53.8836 29.1479 59.8948 23.6503 70.55 14.6296C71.267 14.0207 71.9036 13.4427 72.0093 13.2963C72.4386 12.7318 72.6249 11.9846 72.4817 11.4345C72.3415 10.8949 71.9298 10.6775 71.3312 10.8122Z" fill="#E3B873"/>
</svg>
