<svg width="70" height="70" viewBox="0 0 70 70" fill="none" xmlns="http://www.w3.org/2000/svg">
<path d="M26.25 58.0854C25.0833 58.0854 23.9838 57.6304 23.1554 56.805L5.65542 39.305C3.94917 37.5987 3.94917 34.825 5.65542 33.1187L9.77959 28.9946C11.4829 27.2883 14.2625 27.2883 15.9658 28.9946L26.25 39.27L54.0312 11.4887C55.7346 9.78248 58.5142 9.78248 60.2175 11.4887L64.3417 15.6129C66.0479 17.3192 66.0479 20.0929 64.3417 21.7992L29.3417 56.7992C28.5163 57.6275 27.4167 58.0854 26.25 58.0854ZM12.8742 30.625C12.5008 30.625 12.1275 30.765 11.8417 31.0508L7.7175 35.175C7.14875 35.7437 7.14875 36.6683 7.7175 37.2371L25.2175 54.7371C25.7688 55.2854 26.7283 55.2854 27.2796 54.7371L62.2796 19.7371C62.8483 19.1683 62.8483 18.2437 62.2796 17.675L58.1554 13.5508C57.5867 12.9821 56.6621 12.9821 56.0933 13.5508L27.2796 42.3617C26.7108 42.9304 25.7863 42.9304 25.2175 42.3617L13.9038 31.0508C13.6208 30.7679 13.2475 30.625 12.8742 30.625Z" fill="#3DB5EC"/>
</svg>
