<svg width="62" height="14" viewBox="0 0 62 14" fill="none" xmlns="http://www.w3.org/2000/svg">
<g clip-path="url(#clip0_1305_16)">
<path d="M59 0H51C49.3431 0 48 1.34315 48 3V11C48 12.6569 49.3431 14 51 14H59C60.6569 14 62 12.6569 62 11V3C62 1.34315 60.6569 0 59 0Z" fill="#E3B873"/>
<path d="M35 0H27C25.3431 0 24 1.34315 24 3V11C24 12.6569 25.3431 14 27 14H35C36.6569 14 38 12.6569 38 11V3C38 1.34315 36.6569 0 35 0Z" fill="#E3B873"/>
<path d="M11 0H3C1.34315 0 0 1.34315 0 3V11C0 12.6569 1.34315 14 3 14H11C12.6569 14 14 12.6569 14 11V3C14 1.34315 12.6569 0 11 0Z" fill="#E3B873"/>
</g>
<defs>
<clipPath id="clip0_1305_16">
<rect width="62" height="14" fill="white"/>
</clipPath>
</defs>
</svg>
